<?xml version="1.0" encoding="UTF-8" standalone="no"?>
<!-- Created with Inkscape (http://www.inkscape.org/) -->

<svg
   xmlns:dc="http://purl.org/dc/elements/1.1/"
   xmlns:cc="http://creativecommons.org/ns#"
   xmlns:rdf="http://www.w3.org/1999/02/22-rdf-syntax-ns#"
   xmlns:svg="http://www.w3.org/2000/svg"
   xmlns="http://www.w3.org/2000/svg"
   xmlns:sodipodi="http://sodipodi.sourceforge.net/DTD/sodipodi-0.dtd"
   xmlns:inkscape="http://www.inkscape.org/namespaces/inkscape"
   width="1190"
   height="600"
   id="svg13069"
   version="1.1"
   inkscape:version="0.48.5 r10040"
   sodipodi:docname="sideYELLOW_targetMID_actuatorYELLOW.svg">
  <defs
     id="defs13071">
    <clipPath
       id="SVGID_2_">
      <path
         id="use3593"
         enable-background="new    "
         d="m -1711.219,1357.419 h -1.477 c -1.878,0 -3.417,-4.865 -3.417,-10.88 0,-5.998 1.538,-10.862 3.417,-10.862 h 1.477 c -1.878,0 -3.417,4.864 -3.417,10.862 10e-4,6.015 1.539,10.88 3.417,10.88 z"
         inkscape:connector-curvature="0" />
    </clipPath>
    <clipPath
       id="SVGID_4_">
      <path
         id="use3619"
         enable-background="new    "
         d="m -1699.795,1348.821 h -11.43 c -0.217,0 -0.394,-1.017 -0.394,-2.277 0,-1.251 0.177,-2.268 0.394,-2.268 h 11.43 c -0.217,0 -0.394,1.017 -0.394,2.268 0,1.26 0.177,2.277 0.394,2.277 z"
         inkscape:connector-curvature="0" />
    </clipPath>
    <clipPath
       id="SVGID_6_">
      <path
         id="use3731"
         enable-background="new    "
         d="m -1619.879,1348.821 h -11.43 c -0.219,0 -0.395,-1.017 -0.395,-2.277 0,-1.251 0.177,-2.268 0.395,-2.268 h 11.43 c -0.219,0 -0.395,1.017 -0.395,2.268 0,1.26 0.176,2.277 0.395,2.277 z"
         inkscape:connector-curvature="0" />
    </clipPath>
    <clipPath
       id="SVGID_8_">
      <path
         id="use3823"
         enable-background="new    "
         d="m -1620.023,1357.419 h -1.27 c -1.619,0 -2.94,-4.865 -2.94,-10.88 0,-5.998 1.321,-10.862 2.94,-10.862 h 1.27 c -1.616,0 -2.941,4.864 -2.941,10.862 0,6.015 1.325,10.88 2.941,10.88 z"
         inkscape:connector-curvature="0" />
    </clipPath>
    <clipPath
       id="SVGID_10_">
      <path
         id="use3851"
         d="m -1227.662,1754.664 h 1.156 c 1.984,0 3.581,4.879 3.581,10.879 0,6.014 -1.597,10.893 -3.581,10.893 h -1.156 c 1.981,0 3.578,-4.879 3.578,-10.893 0,-6 -1.597,-10.879 -3.578,-10.879 z"
         inkscape:connector-curvature="0" />
    </clipPath>
    <clipPath
       id="SVGID_12_">
      <path
         id="use3893"
         enable-background="new    "
         d="m -1238.819,1763.271 h 11.43 c 0.217,0 0.396,1.017 0.396,2.277 0,1.251 -0.178,2.277 -0.396,2.277 h -11.43 c 0.217,0 0.395,-1.026 0.395,-2.277 0,-1.26 -0.178,-2.277 -0.395,-2.277 z"
         inkscape:connector-curvature="0" />
    </clipPath>
    <clipPath
       id="SVGID_14_">
      <path
         id="use4109"
         enable-background="new    "
         d="m -1319.645,1763.271 h 11.43 c 0.219,0 0.396,1.017 0.396,2.277 0,1.251 -0.177,2.277 -0.396,2.277 h -11.43 c 0.219,0 0.396,-1.026 0.396,-2.277 0,-1.26 -0.177,-2.277 -0.396,-2.277 z"
         inkscape:connector-curvature="0" />
    </clipPath>
    <clipPath
       id="SVGID_16_">
      <path
         id="use4307"
         d="m -1318.997,1754.664 h 0.998 c 1.71,0 3.086,4.879 3.086,10.879 0,6.014 -1.376,10.893 -3.086,10.893 h -0.998 c 1.71,0 3.087,-4.879 3.087,-10.893 0,-6 -1.377,-10.879 -3.087,-10.879 z"
         inkscape:connector-curvature="0" />
    </clipPath>
  </defs>
  <sodipodi:namedview
     id="base"
     pagecolor="#ffffff"
     bordercolor="#666666"
     borderopacity="1.0"
     inkscape:pageopacity="0.0"
     inkscape:pageshadow="2"
     inkscape:zoom="0.76"
     inkscape:cx="381.09153"
     inkscape:cy="298.36957"
     inkscape:document-units="px"
     inkscape:current-layer="layer1"
     showgrid="false"
     inkscape:window-width="1440"
     inkscape:window-height="838"
     inkscape:window-x="-8"
     inkscape:window-y="-8"
     inkscape:window-maximized="1" />
  <metadata
     id="metadata13074">
    <rdf:RDF>
      <cc:Work
         rdf:about="">
        <dc:format>image/svg+xml</dc:format>
        <dc:type
           rdf:resource="http://purl.org/dc/dcmitype/StillImage" />
        <dc:title></dc:title>
      </cc:Work>
    </rdf:RDF>
  </metadata>
  <g
     inkscape:label="Layer 1"
     inkscape:groupmode="layer"
     id="layer1"
     transform="translate(0,-452.36218)">
    <path
       style="fill:none;stroke:#0069b4;stroke-width:4.93919802000000010;stroke-miterlimit:10;stroke-opacity:1"
       inkscape:connector-curvature="0"
       id="path4341"
       d="m 398.97068,552.92996 c 162.24055,10.51072 426.63225,115.45515 579.31931,280.52271"
       stroke-miterlimit="10" />
    <circle
       style="fill:#0069b4;fill-opacity:1"
       sodipodi:ry="26.861"
       sodipodi:rx="26.861"
       sodipodi:cy="1630.576"
       sodipodi:cx="-1069.562"
       d="m -1042.701,1630.576 c 0,14.835 -12.0261,26.861 -26.861,26.861 -14.8349,0 -26.861,-12.026 -26.861,-26.861 0,-14.8349 12.0261,-26.861 26.861,-26.861 14.8349,0 26.861,12.0261 26.861,26.861 z"
       id="circle4345"
       r="26.861"
       cy="1630.576"
       cx="-1069.562"
       transform="matrix(0.9929832,0,0,0.9929832,2054.2985,-775.91591)" />
  </g>
</svg>
