<?xml version="1.0" encoding="UTF-8" standalone="no"?>
<!-- Created with Inkscape (http://www.inkscape.org/) -->

<svg
   xmlns:dc="http://purl.org/dc/elements/1.1/"
   xmlns:cc="http://creativecommons.org/ns#"
   xmlns:rdf="http://www.w3.org/1999/02/22-rdf-syntax-ns#"
   xmlns:svg="http://www.w3.org/2000/svg"
   xmlns="http://www.w3.org/2000/svg"
   xmlns:sodipodi="http://sodipodi.sourceforge.net/DTD/sodipodi-0.dtd"
   xmlns:inkscape="http://www.inkscape.org/namespaces/inkscape"
   width="48px"
   height="48px"
   id="svg10191"
   version="1.1"
   inkscape:version="0.48.5 r10040"
   sodipodi:docname="New document 11">
  <defs
     id="defs10193" />
  <sodipodi:namedview
     id="base"
     pagecolor="#ffffff"
     bordercolor="#666666"
     borderopacity="1.0"
     inkscape:pageopacity="0.0"
     inkscape:pageshadow="2"
     inkscape:zoom="7"
     inkscape:cx="24"
     inkscape:cy="24"
     inkscape:current-layer="layer1"
     showgrid="true"
     inkscape:grid-bbox="true"
     inkscape:document-units="px"
     inkscape:window-width="1440"
     inkscape:window-height="838"
     inkscape:window-x="-8"
     inkscape:window-y="-8"
     inkscape:window-maximized="1" />
  <metadata
     id="metadata10196">
    <rdf:RDF>
      <cc:Work
         rdf:about="">
        <dc:format>image/svg+xml</dc:format>
        <dc:type
           rdf:resource="http://purl.org/dc/dcmitype/StillImage" />
        <dc:title></dc:title>
      </cc:Work>
    </rdf:RDF>
  </metadata>
  <g
     id="layer1"
     inkscape:label="Layer 1"
     inkscape:groupmode="layer">
    <g
       transform="translate(-6039.7464,-1827.6953)"
       id="g6227">
      <path
         style="fill:#ffffff;fill-rule:evenodd"
         inkscape:connector-curvature="0"
         id="path6229"
         d="m 6071.771,1844.859 c 3.85,0 7.674,0 11.564,0 0.01,0.158 0.025,0.328 0.025,0.496 0,5.809 0.01,11.615 0,17.425 -0.01,4.263 -3.535,7.771 -7.805,7.772 -8.072,0 -16.145,0 -24.217,0 -4.197,0 -7.748,-3.457 -7.773,-7.647 -0.035,-5.89 -0.01,-11.778 -0.01,-17.666 0,-0.112 0.014,-0.224 0.023,-0.374 3.832,0 7.65,0 11.537,0 -1.771,2.665 -2.301,5.508 -1.49,8.549 0.607,2.279 1.908,4.116 3.805,5.525 3.748,2.789 9.004,2.584 12.613,-0.479 3.496,-2.964 5.037,-8.656 1.726,-13.599 z"
         clip-rule="evenodd" />
      <path
         style="fill:#ffffff;fill-rule:evenodd"
         inkscape:connector-curvature="0"
         id="path6231"
         d="m 6049.637,1830.814 c 0,3.184 0,6.365 0,9.594 0.545,0 1.049,0 1.607,0 0,-3.26 0,-6.521 0,-9.818 0.379,0 0.709,0 1.096,0 0,3.258 0,6.514 0,9.818 0.559,0 1.062,0 1.623,0 0,-3.26 0,-6.52 0,-9.855 0.252,0 0.455,0 0.658,0 6.988,0 13.977,0 20.965,0 4.174,0 7.684,3.424 7.771,7.605 0.035,1.697 0.01,3.396 0,5.096 0,0.109 -0.025,0.219 -0.041,0.358 -0.18,0 -0.34,0 -0.5,0 -3.898,0 -7.797,0 -11.695,-0.015 -0.252,0 -0.562,-0.131 -0.75,-0.305 -3.951,-3.662 -10.016,-3.633 -13.953,0.076 -0.127,0.12 -0.324,0.232 -0.49,0.232 -4.059,0.012 -8.119,0.01 -12.18,0.01 -0.047,0 -0.092,-0.02 -0.193,-0.041 0,-0.199 0,-0.406 0,-0.613 0.016,-1.811 -0.029,-3.625 0.064,-5.432 0.107,-2.082 1.518,-4.385 3.268,-5.506 0,2.82 0,5.602 0,8.41 0.543,0 1.021,0 1.588,0 0,-0.184 0,-0.367 0,-0.553 0,-2.652 0,-5.304 0,-7.959 0,-0.895 0.148,-1.041 1.158,-1.098 z m 23.369,6.464 c 0,0.712 -0.01,1.423 0,2.134 0.01,0.773 0.506,1.279 1.271,1.284 1.391,0.01 2.781,0.01 4.172,0 0.766,0 1.277,-0.513 1.283,-1.278 0.01,-1.422 0.01,-2.846 0,-4.268 -0.01,-0.752 -0.484,-1.271 -1.229,-1.285 -1.422,-0.023 -2.846,-0.023 -4.268,0 -0.752,0.012 -1.223,0.529 -1.23,1.277 -0.01,0.711 0,1.422 0,2.134 z"
         clip-rule="evenodd" />
      <path
         style="fill:#ffffff;fill-rule:evenodd"
         inkscape:connector-curvature="0"
         id="path6233"
         d="m 6063.422,1858.578 c -4.346,0 -7.879,-3.537 -7.857,-7.867 0.021,-4.318 3.543,-7.828 7.857,-7.828 4.352,0 7.871,3.51 7.869,7.852 0,4.352 -3.504,7.843 -7.869,7.843 z m 0.039,-13.623 c -3.186,0 -5.773,2.578 -5.777,5.754 0,3.211 2.582,5.814 5.775,5.814 3.172,0 5.775,-2.596 5.777,-5.764 0,-3.22 -2.568,-5.804 -5.775,-5.804 z"
         clip-rule="evenodd" />
    </g>
  </g>
</svg>
