<?xml version="1.0" encoding="UTF-8" standalone="no"?>
<!-- Created with Inkscape (http://www.inkscape.org/) -->

<svg
   xmlns:dc="http://purl.org/dc/elements/1.1/"
   xmlns:cc="http://creativecommons.org/ns#"
   xmlns:rdf="http://www.w3.org/1999/02/22-rdf-syntax-ns#"
   xmlns:svg="http://www.w3.org/2000/svg"
   xmlns="http://www.w3.org/2000/svg"
   xmlns:sodipodi="http://sodipodi.sourceforge.net/DTD/sodipodi-0.dtd"
   xmlns:inkscape="http://www.inkscape.org/namespaces/inkscape"
   width="48px"
   height="48px"
   id="svg10080"
   version="1.1"
   inkscape:version="0.48.5 r10040"
   sodipodi:docname="New document 5">
  <defs
     id="defs10082" />
  <sodipodi:namedview
     id="base"
     pagecolor="#ffffff"
     bordercolor="#666666"
     borderopacity="1.0"
     inkscape:pageopacity="0.0"
     inkscape:pageshadow="2"
     inkscape:zoom="7"
     inkscape:cx="24"
     inkscape:cy="24"
     inkscape:current-layer="layer1"
     showgrid="true"
     inkscape:grid-bbox="true"
     inkscape:document-units="px"
     inkscape:window-width="1440"
     inkscape:window-height="838"
     inkscape:window-x="-8"
     inkscape:window-y="-8"
     inkscape:window-maximized="1" />
  <metadata
     id="metadata10085">
    <rdf:RDF>
      <cc:Work
         rdf:about="">
        <dc:format>image/svg+xml</dc:format>
        <dc:type
           rdf:resource="http://purl.org/dc/dcmitype/StillImage" />
        <dc:title></dc:title>
      </cc:Work>
    </rdf:RDF>
  </metadata>
  <g
     id="layer1"
     inkscape:label="Layer 1"
     inkscape:groupmode="layer">
    <g
       transform="translate(-3862.9302,-85.375556)"
       id="g1173">
      <path
         style="fill:#3c3c3b;fill-rule:evenodd"
         inkscape:connector-curvature="0"
         id="path1175"
         d="m 3896.56,102.877 c 4.395,0 8.762,0 13.201,0 0.01,0.18 0.029,0.373 0.029,0.564 0,6.633 0.01,13.262 0,19.893 -0.01,4.867 -4.035,8.871 -8.909,8.875 -9.216,0 -18.434,0 -27.646,-0.004 -4.792,0 -8.847,-3.945 -8.874,-8.73 -0.041,-6.723 -0.011,-13.445 -0.011,-20.168 0,-0.127 0.017,-0.254 0.028,-0.426 4.373,0 8.732,0 13.171,0 -2.022,3.041 -2.626,6.287 -1.7,9.76 0.693,2.602 2.178,4.697 4.342,6.307 4.279,3.186 10.279,2.951 14.4,-0.545 3.988,-3.385 5.748,-9.883 1.969,-15.526 z"
         clip-rule="evenodd" />
      <path
         style="fill:#3c3c3b;fill-rule:evenodd"
         inkscape:connector-curvature="0"
         id="path1177"
         d="m 3871.29,86.842 c 0,3.635 0,7.268 0,10.953 0.621,0 1.197,0 1.834,0 0,-3.723 0,-7.445 0,-11.209 0.434,0 0.81,0 1.252,0 0,3.719 0,7.436 0,11.209 0.638,0 1.213,0 1.852,0 0,-3.723 0,-7.443 0,-11.252 0.289,0 0.521,0 0.754,0 7.977,0 15.952,-0.002 23.932,0 4.766,0.002 8.771,3.908 8.873,8.684 0.039,1.938 0.01,3.877 0,5.816 0,0.125 -0.027,0.25 -0.047,0.408 -0.203,0 -0.387,0 -0.57,0 -4.451,0 -8.9,0.006 -13.352,-0.016 -0.29,0 -0.643,-0.148 -0.856,-0.348 -4.511,-4.182 -11.435,-4.146 -15.929,0.086 -0.145,0.137 -0.371,0.266 -0.561,0.266 -4.633,0.014 -9.27,0.01 -13.904,0.008 -0.054,0 -0.106,-0.023 -0.222,-0.047 0,-0.229 0,-0.465 0,-0.701 0.018,-2.066 -0.032,-4.139 0.073,-6.201 0.123,-2.377 1.734,-5.006 3.73,-6.285 0,3.221 0,6.395 0,9.602 0.621,0 1.168,0 1.814,0 0,-0.209 0,-0.42 0,-0.631 0,-3.027 0,-6.057 0,-9.086 10e-4,-1.024 0.168,-1.192 1.323,-1.256 z m 26.68,7.379 c 0,0.812 -0.01,1.625 0,2.438 0.012,0.883 0.578,1.459 1.451,1.465 1.588,0.01 3.176,0.01 4.764,0 0.873,-0.006 1.459,-0.586 1.465,-1.459 0.012,-1.623 0.012,-3.248 0,-4.873 -0.01,-0.857 -0.553,-1.451 -1.402,-1.467 -1.623,-0.025 -3.248,-0.025 -4.873,0.002 -0.856,0.014 -1.395,0.605 -1.404,1.459 -0.01,0.812 0,1.622 0,2.435 z"
         clip-rule="evenodd" />
      <path
         style="fill:#3c3c3b;fill-rule:evenodd"
         inkscape:connector-curvature="0"
         id="path1179"
         d="m 3887.026,118.537 c -4.961,0 -8.995,-4.037 -8.971,-8.98 0.027,-4.93 4.047,-8.938 8.973,-8.938 4.967,-0.002 8.984,4.008 8.982,8.965 0,4.969 -3.999,8.953 -8.984,8.953 z m 0.047,-15.553 c -3.637,-0.002 -6.594,2.943 -6.596,6.57 0,3.666 2.947,6.637 6.592,6.637 3.621,0 6.594,-2.963 6.596,-6.58 0,-3.675 -2.932,-6.627 -6.592,-6.627 z"
         clip-rule="evenodd" />
    </g>
  </g>
</svg>
